<svg width="128" height="128" viewBox="0 0 128 128" fill="none" xmlns="http://www.w3.org/2000/svg">
<path d="M108 32H20C15.5817 32 12 35.5817 12 40V108C12 112.418 15.5817 116 20 116H108C112.418 116 116 112.418 116 108V40C116 35.5817 112.418 32 108 32Z" fill="url(#paint0_linear_2007_240)"/>
<path d="M108 12H20C15.5817 12 12 15.5817 12 20V104C12 108.418 15.5817 112 20 112H108C112.418 112 116 108.418 116 104V20C116 15.5817 112.418 12 108 12Z" fill="#F6F5F4"/>
<path d="M85.1406 65.8047V100H78.3906V73.5859L70.2812 76.1641V70.8438L84.4141 65.8047H85.1406Z" fill="#AFAFAF"/>
<path d="M50.0781 65.875V100H43.0469V65.875H50.0781ZM63.6719 80.4531V85.9375H48.1562V80.4531H63.6719ZM65.3125 65.875V71.3828H48.1562V65.875H65.3125Z" fill="#AFAFAF"/>
<circle cx="64" cy="38" r="7" fill="#AFAFAF"/>
<path d="M75 38L81 38" stroke="#AFAFAF" stroke-width="4"/>
<path d="M47 38L53 38" stroke="#AFAFAF" stroke-width="4"/>
<path d="M64 49L64 55" stroke="#AFAFAF" stroke-width="4"/>
<path d="M64 21L64 27" stroke="#AFAFAF" stroke-width="4"/>
<path d="M71.7782 45.7782L76.0208 50.0208" stroke="#AFAFAF" stroke-width="4"/>
<path d="M51.9792 25.9792L56.2218 30.2218" stroke="#AFAFAF" stroke-width="4"/>
<path d="M56.2218 45.7782L51.9792 50.0208" stroke="#AFAFAF" stroke-width="4"/>
<path d="M76.0208 25.9792L71.7782 30.2218" stroke="#AFAFAF" stroke-width="4"/>
<defs>
<linearGradient id="paint0_linear_2007_240" x1="12" y1="64" x2="116" y2="64" gradientUnits="userSpaceOnUse">
<stop stop-color="#BABDB6"/>
<stop offset="0.0415667" stop-color="#F6F5F4"/>
<stop offset="0.0416667" stop-color="#F6F5F4"/>
<stop offset="0.0832333" stop-color="#D9D7D4"/>
<stop offset="0.0833333" stop-color="#D5D3CF"/>
<stop offset="0.916667" stop-color="#DEDDDA"/>
<stop offset="0.958333" stop-color="#F6F5F4"/>
<stop offset="1" stop-color="#BABDB6"/>
</linearGradient>
</defs>
</svg>
