<svg width="16" height="16" viewBox="0 0 16 16" fill="none" xmlns="http://www.w3.org/2000/svg">
<path d="M2.48438 1C1.65234 1 0.984375 1.66797 0.984375 2.5V13.5C0.984375 14.332 1.65234 15 2.48438 15H13.4961C14.3281 15 14.9961 14.332 14.9961 13.5V2.5C14.9961 1.66797 14.3281 1 13.4961 1H2.48438ZM2.54688 2C5.73438 2.26953 10.6641 2.23047 13.4336 2C13.7344 1.97656 13.9961 2.26172 13.9961 2.5625V12.4375C13.9961 12.7383 13.7344 12.9648 13.4336 13C10.4297 13.3398 5.46875 13.3281 2.54688 13C2.24609 12.9648 1.98438 12.7383 1.98438 12.4375V2.5625C1.98438 2.26172 2.24609 1.97656 2.54688 2Z" fill="#222222"/>
<path d="M12.6707 10.1675V11H9.07066V10.1675H10.3892V6.37401C10.3892 6.22401 10.3937 6.06951 10.4027 5.91051L9.46666 6.69351C9.41266 6.73551 9.35866 6.76251 9.30466 6.77451C9.25366 6.78351 9.20416 6.78351 9.15616 6.77451C9.11116 6.76551 9.07066 6.75051 9.03466 6.72951C8.99866 6.70551 8.97166 6.68001 8.95366 6.65301L8.60266 6.17151L10.5872 4.48401H11.5007V10.1675H12.6707Z" fill="#222222"/>
<path d="M5.215 5.45601V7.38201H7.654V8.34951H5.215V11H4V4.49301H8.104V5.45601H5.215Z" fill="#222222"/>
</svg>